<?xml version="1.0" encoding="utf-8"?> <!-- Generator: IcoMoon.io --> <!DOCTYPE svg PUBLIC "-//W3C//DTD SVG 1.1//EN" "http://www.w3.org/Graphics/SVG/1.1/DTD/svg11.dtd"> <svg width="512" height="512" viewBox="0 0 512 512" xmlns="http://www.w3.org/2000/svg" xmlns:xlink="http://www.w3.org/1999/xlink" fill="#000000"><path d="M 480.00,384.00c0.00,0.00-132.00,0.00-160.00,0.00s 32.00,96.00, 32.00,96.00c0.00,17.664-14.336,32.00-32.00,32.00l-128.00,0.00 c-17.664,0.00-32.00-14.336-32.00-32.00 c0.00,0.00, 60.992-96.00, 32.00-96.00S 32.00,384.00, 32.00,384.00c-17.664,0.00-32.00-14.336-32.00-32.00L0.00,32.00 c0.00-17.664, 14.336-32.00, 32.00-32.00l 448.00,0.00 c 17.664,0.00, 32.00,14.336, 32.00,32.00l0.00,320.00 C 512.00,369.664, 497.664,384.00, 480.00,384.00z M 256.00,368.00c 17.664,0.00, 32.00-14.336, 32.00-32.00s-14.336-32.00-32.00-32.00s-32.00,14.336-32.00,32.00S 238.336,368.00, 256.00,368.00z M 480.00,64.00c0.00-17.664-14.336-32.00-32.00-32.00L 64.00,32.00 C 46.336,32.00, 32.00,46.336, 32.00,64.00l0.00,192.00 c0.00,17.664, 14.336,32.00, 32.00,32.00l 384.00,0.00 c 17.664,0.00, 32.00-14.336, 32.00-32.00L 480.00,64.00 z" ></path></svg>